Coordinates
version=1
nRows=8
nColumns=36
inDegrees=yes

Units are S.I. units (second, meters, Newtons, ...)
If the header above contains a line with 'inDegrees', this indicates whether rotational values are in degrees (yes) or radians (no).

endheader
time	pelvis_tilt	pelvis_list	pelvis_rotation	pelvis_tx	pelvis_ty	pelvis_tz	hip_flexion_r	hip_adduction_r	hip_rotation_r	knee_angle_r	knee_angle_r_beta	ankle_angle_r	subtalar_angle_r	mtp_angle_r	hip_flexion_l	hip_adduction_l	hip_rotation_l	knee_angle_l	knee_angle_l_beta	ankle_angle_l	subtalar_angle_l	mtp_angle_l	lumbar_extension	lumbar_bending	lumbar_rotation	arm_flex_r	arm_add_r	arm_rot_r	elbow_flex_r	pro_sup_r	arm_flex_l	arm_add_l	arm_rot_l	elbow_flex_l	pro_sup_l
      1.11000000	    -10.59768833	      1.53117348	     -3.46680488	     -0.74556275	      1.30073016	     -0.58206575	     20.00183288	     -1.58669874	      4.58224157	     53.50152809	      0.93377782	    -21.21749151	    -18.48803996	     -5.46083126	     17.42069906	     -2.45080347	     -5.57541285	     48.75545133	      0.85094315	    -27.79969284	    -12.74377181	     -5.46083126	     -2.59690265	      0.54621098	     -1.30162190	     64.08922064	    -36.48032805	     28.00253283	     86.11441873	    108.23401119	     64.81065292	    -25.05771656	     13.57616749	     63.77303727	    112.22117390
      1.12000000	    -10.60382711	      1.61920375	     -3.10969263	     -0.73629081	      1.30480046	     -0.58219923	     21.61348629	     -1.65607925	      4.56313987	     54.46380131	      0.95057266	    -21.56670320	    -19.39895717	     -5.51191440	     19.46924036	     -2.55687069	     -5.27270350	     50.10440103	      0.87448677	    -27.77388819	    -13.46257393	     -5.51191440	     -2.98018722	      0.36743355	     -1.78184322	     63.85214480	    -36.60550292	     27.54568069	     85.30314837	    108.23418501	     64.21259354	    -25.42531415	     12.85579967	     63.69905708	    112.14756136
      1.13000000	    -10.50022132	      1.66332608	     -2.67977599	     -0.72714008	      1.30802664	     -0.58248083	     22.91497366	     -1.77674825	      4.42427312	     54.73513805	      0.95530838	    -21.53061248	    -20.15357102	     -5.53431688	     21.30193347	     -2.60142945	     -4.81928165	     50.85278652	      0.88754856	    -27.86420059	    -14.14034887	     -5.53431688	     -3.58306820	      0.23732039	     -2.24530729	     63.71560079	    -36.80973128	     27.27388325	     84.49084961	    108.22474366	     63.78147853	    -25.67416734	     12.47417750	     63.37285883	    112.10714950
      1.14000000	    -10.48448837	      1.69872800	     -2.31757573	     -0.71841877	      1.31023421	     -0.58290558	     24.12284542	     -1.86790462	      4.53127364	     54.22402936	      0.94638785	    -21.71947095	    -20.85895832	     -5.57970750	     23.15438278	     -2.58703286	     -4.35049402	     50.99918607	      0.89010371	    -28.22552341	    -15.06881364	     -5.57970750	     -4.13457746	      0.04731926	     -2.57576083	     63.52441968	    -37.05243508	     27.08366947	     83.42495551	    108.30704205	     63.53031292	    -25.76129150	     12.28216609	     62.75210500	    112.11228799
      1.15000000	    -10.27171226	      1.73635767	     -2.02045800	     -0.70998869	      1.31196855	     -0.58350647	     24.93563217	     -2.03860268	      4.69816291	     52.97247814	      0.92454416	    -21.52784310	    -20.92232036	     -5.59004966	     24.62366282	     -2.54169925	     -3.92695618	     50.38924792	      0.87945828	    -28.05926775	    -15.26541083	     -5.59004966	     -5.08011338	     -0.16937229	     -2.67371764	     63.35039871	    -37.65205780	     26.95462449	     82.64957030	    108.29562652	     63.41600777	    -25.71215448	     12.36188693	     62.36682684	    112.10061886
      1.16000000	     -9.99657906	      1.66892300	     -1.69078215	     -0.70176578	      1.31299846	     -0.58440273	     25.54486223	     -2.31614705	      4.47689193	     51.12102841	      0.89223026	    -21.29544414	    -20.64067508	     -5.61854512	     25.89902911	     -2.53942387	     -3.40277875	     49.12855329	      0.85745501	    -27.79657405	    -15.29650454	     -5.61854512	     -6.12931257	     -0.14822248	     -2.68087386	     63.29739330	    -38.19185861	     26.73294215	     81.63874571	    108.35491313	     63.53634341	    -25.42580738	     12.69885463	     61.18760902	    112.06093105
      1.17000000	     -9.60386535	      1.69205277	     -1.51150066	     -0.69349885	      1.31341347	     -0.58517843	     25.86109414	     -2.69042050	      4.30178285	     48.73764168	      0.85063232	    -20.87432200	    -20.31133003	     -5.64630249	     26.75449933	     -2.47146942	     -3.05619301	     47.09775414	      0.82201088	    -27.29424521	    -15.00939790	     -5.64630249	     -7.42766226	     -0.14991936	     -2.59526715	     63.39357608	    -38.67947963	     26.65856936	     80.86393130	    108.41255360	     63.54285708	    -25.29063296	     13.06604706	     60.42748366	    112.05503138
      1.18000000	     -9.06900163	      1.71294754	     -1.36115972	     -0.68508855	      1.31304195	     -0.58601182	     25.83313282	     -3.06508896	      4.07533090	     45.94541037	      0.80189869	    -20.50466344	    -20.04277921	     -5.67669964	     27.23427802	     -2.40093358	     -2.82064147	     44.54452678	      0.77744866	    -26.66196939	    -14.64682826	     -5.67669964	     -8.90418702	     -0.13874830	     -2.49741484	     63.56272622	    -39.16841708	     26.67044046	     80.09149789	    108.44890782	     63.58545679	    -25.20901447	     13.49950861	     59.77777453	    112.06102762
